<?xml version="1.0" standalone="no"?><!DOCTYPE svg PUBLIC "-//W3C//DTD SVG 1.1//EN" "http://www.w3.org/Graphics/SVG/1.1/DTD/svg11.dtd"><svg t="1733583064176" class="icon" viewBox="0 0 1152 1024" version="1.1" xmlns="http://www.w3.org/2000/svg" p-id="13096" xmlns:xlink="http://www.w3.org/1999/xlink" width="225" height="200"><path d="M608 480V33.2c0-18 14-33.2 32-33.2 247.4 0 448 200.6 448 448 0 18-15.2 32-33.2 32H608zM64 544c0-242.6 180.2-443.4 414-475.4 18.4-2.6 34 12.2 34 30.8V576l313 313c13.4 13.4 12.4 35.4-3 46.2-78.4 56-174.4 88.8-278 88.8-265 0-480-214.8-480-480z m1052.8 32c18.6 0 33.2 15.6 30.8 34-15.4 111.8-69.2 211.2-147.8 284.6-12 11.2-30.8 10.4-42.4-1.4L640 576h476.8z" p-id="13097" fill="#000000"></path></svg>