<?xml version="1.0" standalone="no"?><!DOCTYPE svg PUBLIC "-//W3C//DTD SVG 1.1//EN" "http://www.w3.org/Graphics/SVG/1.1/DTD/svg11.dtd"><svg t="1733582991469" class="icon" viewBox="0 0 1024 1024" version="1.1" xmlns="http://www.w3.org/2000/svg" p-id="1501" width="200" height="200" xmlns:xlink="http://www.w3.org/1999/xlink"><path d="M446.2 64c0-35.34 30.4-64 64-64C547.4 0 576 28.66 576 64h306.8c8.4 0 16.6 3.38 22.6 9.38l96 96c12.4 12.48 12.4 32.82 0 45.22l-96 96c-6 6-14.2 9.4-22.6 9.4H126.2c-33.54 0-64-28.6-64-64V128c0-35.34 30.46-64 64-64h320zM960 640c0 35.4-28.6 64-64 64H141.26c-8.5 0-16.64-3.4-22.64-9.4l-96-96c-12.49-12.4-12.49-32.8 0-45.2l96-96c6-6 14.14-11.2 22.64-11.2H446.2v-64H576v64h320c35.4 0 64 30.4 64 64V640zM510.2 1024c-33.6 0-64-28.6-64-64v-192H576v192c0 35.4-28.6 64-65.8 64z" p-id="1502" fill="#000000"></path></svg>